<?xml version="1.0" standalone="no"?>
<!DOCTYPE svg PUBLIC "-//W3C//DTD SVG 1.1//EN"
"http://www.w3.org/Graphics/SVG/1.1/DTD/svg11.dtd">

<svg width="735" height="642" view_box="0 0 735 642"
xmlns="http://www.w3.org/2000/svg"
xmlns:link="http://www.w3.org/1999/xlink">\n\n<desc>Généré par Mocodo 2.3.7 le Wed, 20 Dec 2017 12:15:08</desc>

<rect id="frame" x="0" y="0" width="735" height="642" fill="#f7f7f7" stroke="none" stroke-width="0"/>

<!-- Association Inscription -->
<line x1="395" y1="119" x2="686" y2="329" stroke="#8073ac" stroke-width="2"/>
<text x="449" y="151.835798751" fill="#b35806" font-family="Verdana" font-size="12">0,N</text>
<line x1="603" y1="531" x2="686" y2="329" stroke="#8073ac" stroke-width="2"/>
<text x="621.128878057" y="421" fill="#b35806" font-family="Verdana" font-size="12">0,N</text>
<g id="association-Inscription">
	<path d="M 712 304 a 14 14 90 0 1 14 14 V 329 h -80 V 318 a 14 14 90 0 1 14 -14" fill="#b2abd2" stroke="#b2abd2" stroke-width="0"/>
	<path d="M 726 329.0 v 11 a 14 14 90 0 1 -14 14 H 660 a 14 14 90 0 1 -14 -14 V 329.0 H 80" fill="#d8daeb" stroke="#d8daeb" stroke-width="0"/>
	<rect x="646" y="304" width="80" height="50" fill="none" rx="14" stroke="#8073ac" stroke-width="2"/>
	<line x1="646" y1="329" x2="726" y2="329" stroke="#8073ac" stroke-width="1"/>
	<text x="653" y="321.7" fill="#000000" font-family="Verdana" font-size="12">Inscription</text>
</g>

<!-- Association Concerne -->
<line x1="282" y1="396" x2="395" y2="396" stroke="#8073ac" stroke-width="2"/>
<text x="332" y="413.0" fill="#b35806" font-family="Verdana" font-size="12">1,1</text>
<line x1="603" y1="531" x2="395" y2="396" stroke="#8073ac" stroke-width="2"/>
<text x="525" y="509.909675383" fill="#b35806" font-family="Verdana" font-size="12">0,N</text>
<g id="association-Concerne">
	<path d="M 417 371 a 14 14 90 0 1 14 14 V 396 h -72 V 385 a 14 14 90 0 1 14 -14" fill="#b2abd2" stroke="#b2abd2" stroke-width="0"/>
	<path d="M 431 396.0 v 11 a 14 14 90 0 1 -14 14 H 373 a 14 14 90 0 1 -14 -14 V 396.0 H 72" fill="#d8daeb" stroke="#d8daeb" stroke-width="0"/>
	<rect x="359" y="371" width="72" height="50" fill="none" rx="14" stroke="#8073ac" stroke-width="2"/>
	<line x1="359" y1="396" x2="431" y2="396" stroke="#8073ac" stroke-width="1"/>
	<text x="366" y="388.7" fill="#000000" font-family="Verdana" font-size="12">Concerne</text>
</g>

<!-- Association Donne -->
<line x1="395" y1="119" x2="282" y2="279" stroke="#8073ac" stroke-width="2"/>
<text x="319" y="185.754895844" fill="#b35806" font-family="Verdana" font-size="12">0,N</text>
<line x1="282" y1="396" x2="282" y2="279" stroke="#8073ac" stroke-width="2"/>
<text x="256.0" y="346" fill="#b35806" font-family="Verdana" font-size="12">1,1</text>
<g id="association-Donne">
	<path d="M 295 254 a 14 14 90 0 1 14 14 V 279 h -54 V 268 a 14 14 90 0 1 14 -14" fill="#b2abd2" stroke="#b2abd2" stroke-width="0"/>
	<path d="M 309 279.0 v 11 a 14 14 90 0 1 -14 14 H 269 a 14 14 90 0 1 -14 -14 V 279.0 H 54" fill="#d8daeb" stroke="#d8daeb" stroke-width="0"/>
	<rect x="255" y="254" width="54" height="50" fill="none" rx="14" stroke="#8073ac" stroke-width="2"/>
	<line x1="255" y1="279" x2="309" y2="279" stroke="#8073ac" stroke-width="1"/>
	<text x="262" y="271.7" fill="#000000" font-family="Verdana" font-size="12">Donne</text>
</g>

<!-- Association Ferme_compte -->
<line x1="62" y1="119" x2="197" y2="119" stroke="#8073ac" stroke-width="2"/>
<text x="117" y="136.0" fill="#b35806" font-family="Verdana" font-size="12">0,N</text>
<line x1="395" y1="119" x2="197" y2="119" stroke="#8073ac" stroke-width="2"/>
<text x="319" y="111.0" fill="#b35806" font-family="Verdana" font-size="12">0,N</text>
<g id="association-Ferme_compte">
	<path d="M 236 94 a 14 14 90 0 1 14 14 V 119 h -106 V 108 a 14 14 90 0 1 14 -14" fill="#b2abd2" stroke="#b2abd2" stroke-width="0"/>
	<path d="M 250 119.0 v 11 a 14 14 90 0 1 -14 14 H 158 a 14 14 90 0 1 -14 -14 V 119.0 H 106" fill="#d8daeb" stroke="#d8daeb" stroke-width="0"/>
	<rect x="144" y="94" width="106" height="50" fill="none" rx="14" stroke="#8073ac" stroke-width="2"/>
	<line x1="144" y1="119" x2="250" y2="119" stroke="#8073ac" stroke-width="1"/>
	<text x="151" y="111.7" fill="#000000" font-family="Verdana" font-size="12">Ferme_compte</text>
</g>

<!-- Association Propose -->
<line x1="395" y1="119" x2="508" y2="329" stroke="#8073ac" stroke-width="2"/>
<text x="449" y="206.256775421" fill="#b35806" font-family="Verdana" font-size="12">0,N</text>
<line x1="603" y1="531" x2="508" y2="329" stroke="#8073ac" stroke-width="2"/>
<text x="556.348108465" y="421" fill="#b35806" font-family="Verdana" font-size="12">1,1</text>
<g id="association-Propose">
	<path d="M 526 304 a 14 14 90 0 1 14 14 V 329 h -64 V 318 a 14 14 90 0 1 14 -14" fill="#b2abd2" stroke="#b2abd2" stroke-width="0"/>
	<path d="M 540 329.0 v 11 a 14 14 90 0 1 -14 14 H 490 a 14 14 90 0 1 -14 -14 V 329.0 H 64" fill="#d8daeb" stroke="#d8daeb" stroke-width="0"/>
	<rect x="476" y="304" width="64" height="50" fill="none" rx="14" stroke="#8073ac" stroke-width="2"/>
	<line x1="476" y1="329" x2="540" y2="329" stroke="#8073ac" stroke-width="1"/>
	<text x="483" y="321.7" fill="#000000" font-family="Verdana" font-size="12">Propose</text>
</g>

<!-- Association Correspond -->
<line x1="603" y1="531" x2="395" y2="531" stroke="#8073ac" stroke-width="2"/>
<text x="526" y="548.0" fill="#b35806" font-family="Verdana" font-size="12">0,1</text>
<line x1="197" y1="531" x2="395" y2="531" stroke="#8073ac" stroke-width="2"/>
<text x="246" y="548.0" fill="#b35806" font-family="Verdana" font-size="12">0,N</text>
<g id="association-Correspond">
	<path d="M 423 506 a 14 14 90 0 1 14 14 V 531 h -84 V 520 a 14 14 90 0 1 14 -14" fill="#b2abd2" stroke="#b2abd2" stroke-width="0"/>
	<path d="M 437 531.0 v 11 a 14 14 90 0 1 -14 14 H 367 a 14 14 90 0 1 -14 -14 V 531.0 H 84" fill="#d8daeb" stroke="#d8daeb" stroke-width="0"/>
	<rect x="353" y="506" width="84" height="50" fill="none" rx="14" stroke="#8073ac" stroke-width="2"/>
	<line x1="353" y1="531" x2="437" y2="531" stroke="#8073ac" stroke-width="1"/>
	<text x="360" y="523.7" fill="#000000" font-family="Verdana" font-size="12">Correspond</text>
</g>

<!-- Association Possede -->
<line x1="395" y1="119" x2="508" y2="119" stroke="#8073ac" stroke-width="2"/>
<text x="449" y="111.0" fill="#b35806" font-family="Verdana" font-size="12">0,N</text>
<line x1="603" y1="119" x2="508" y2="119" stroke="#8073ac" stroke-width="2"/>
<text x="546" y="136.0" fill="#b35806" font-family="Verdana" font-size="12">1,1</text>
<g id="association-Possede">
	<path d="M 526 94 a 14 14 90 0 1 14 14 V 119 h -64 V 108 a 14 14 90 0 1 14 -14" fill="#b2abd2" stroke="#b2abd2" stroke-width="0"/>
	<path d="M 540 119.0 v 11 a 14 14 90 0 1 -14 14 H 490 a 14 14 90 0 1 -14 -14 V 119.0 H 64" fill="#d8daeb" stroke="#d8daeb" stroke-width="0"/>
	<rect x="476" y="94" width="64" height="50" fill="none" rx="14" stroke="#8073ac" stroke-width="2"/>
	<line x1="476" y1="119" x2="540" y2="119" stroke="#8073ac" stroke-width="1"/>
	<text x="483" y="111.7" fill="#000000" font-family="Verdana" font-size="12">Possede</text>
</g>

<!-- Association Cree_traj_type -->
<line x1="62" y1="119" x2="62" y2="329" stroke="#8073ac" stroke-width="2"/>
<text x="67.0" y="170" fill="#b35806" font-family="Verdana" font-size="12">0,N</text>
<line x1="197" y1="531" x2="62" y2="329" stroke="#8073ac" stroke-width="2"/>
<text x="127" y="477.0419105" fill="#b35806" font-family="Verdana" font-size="12">1,1</text>
<g id="association-Cree_traj_type">
	<path d="M 101 304 a 14 14 90 0 1 14 14 V 329 h -106 V 318 a 14 14 90 0 1 14 -14" fill="#b2abd2" stroke="#b2abd2" stroke-width="0"/>
	<path d="M 115 329.0 v 11 a 14 14 90 0 1 -14 14 H 23 a 14 14 90 0 1 -14 -14 V 329.0 H 106" fill="#d8daeb" stroke="#d8daeb" stroke-width="0"/>
	<rect x="9" y="304" width="106" height="50" fill="none" rx="14" stroke="#8073ac" stroke-width="2"/>
	<line x1="9" y1="329" x2="115" y2="329" stroke="#8073ac" stroke-width="1"/>
	<text x="16" y="321.7" fill="#000000" font-family="Verdana" font-size="12">Cree_traj_type</text>
</g>

<!-- Association Cible -->
<line x1="282" y1="396" x2="395" y2="279" stroke="#8073ac" stroke-width="2"/>
<text x="303.461217483" y="346" fill="#b35806" font-family="Verdana" font-size="12">1,1</text>
<line x1="395" y1="119" x2="395" y2="279" stroke="#8073ac" stroke-width="2"/>
<text x="400.0" y="246" fill="#b35806" font-family="Verdana" font-size="12">0,N</text>
<g id="association-Cible">
	<path d="M 404 254 a 14 14 90 0 1 14 14 V 279 h -46 V 268 a 14 14 90 0 1 14 -14" fill="#b2abd2" stroke="#b2abd2" stroke-width="0"/>
	<path d="M 418 279.0 v 11 a 14 14 90 0 1 -14 14 H 386 a 14 14 90 0 1 -14 -14 V 279.0 H 46" fill="#d8daeb" stroke="#d8daeb" stroke-width="0"/>
	<rect x="372" y="254" width="46" height="50" fill="none" rx="14" stroke="#8073ac" stroke-width="2"/>
	<line x1="372" y1="279" x2="418" y2="279" stroke="#8073ac" stroke-width="1"/>
	<text x="379" y="271.7" fill="#000000" font-family="Verdana" font-size="12">Cible</text>
</g>

<!-- Entity Administrateur -->
<g id="entity-Administrateur">
	<g id="frame-Administrateur">
		<rect x="12" y="85" width="100" height="25" fill="#fdb863" stroke="#fdb863" stroke-width="0"/>
		<rect x="12" y="110.0" width="100" height="43" fill="#fee0b6" stroke="#fee0b6" stroke-width="0"/>
		<rect x="12" y="85" width="100" height="68" fill="none" stroke="#e08214" stroke-width="2"/>
		<line x1="12" y1="110" x2="112" y2="110" stroke="#e08214" stroke-width="1"/>
	</g>
	<text x="17" y="102.7" fill="#000000" font-family="Verdana" font-size="12">Administrateur</text>
	<text x="17" y="127.8" fill="#000000" font-family="Verdana" font-size="12">username</text>
	<line x1="17" y1="130" x2="78" y2="130" stroke="#000000" stroke-width="1"/>
	<text x="17" y="144.8" fill="#000000" font-family="Verdana" font-size="12">password</text>
</g>

<!-- Entity Trajet_type -->
<g id="entity-Trajet_type">
	<g id="frame-Trajet_type">
		<rect x="153" y="463" width="88" height="25" fill="#fdb863" stroke="#fdb863" stroke-width="0"/>
		<rect x="153" y="488.0" width="88" height="111" fill="#fee0b6" stroke="#fee0b6" stroke-width="0"/>
		<rect x="153" y="463" width="88" height="136" fill="none" stroke="#e08214" stroke-width="2"/>
		<line x1="153" y1="488" x2="241" y2="488" stroke="#e08214" stroke-width="1"/>
	</g>
	<text x="161" y="480.7" fill="#000000" font-family="Verdana" font-size="12">Trajet_type</text>
	<text x="158" y="505.7" fill="#000000" font-family="Verdana" font-size="12">idTrajType</text>
	<line x1="158" y1="508" x2="223" y2="508" stroke="#000000" stroke-width="1"/>
	<text x="158" y="522.7" fill="#000000" font-family="Verdana" font-size="12">villeDepart</text>
	<text x="158" y="539.8" fill="#000000" font-family="Verdana" font-size="12">villeArrivee</text>
	<text x="158" y="556.8" fill="#000000" font-family="Verdana" font-size="12">distance</text>
	<text x="158" y="573.8" fill="#000000" font-family="Verdana" font-size="12">tempsMoyen</text>
	<text x="158" y="590.8" fill="#000000" font-family="Verdana" font-size="12">plafondPrix</text>
</g>

<!-- Entity Vehicule -->
<g id="entity-Vehicule">
	<g id="frame-Vehicule">
		<rect x="572" y="68" width="62" height="25" fill="#fdb863" stroke="#fdb863" stroke-width="0"/>
		<rect x="572" y="93.0" width="62" height="77" fill="#fee0b6" stroke="#fee0b6" stroke-width="0"/>
		<rect x="572" y="68" width="62" height="102" fill="none" stroke="#e08214" stroke-width="2"/>
		<line x1="572" y1="93" x2="634" y2="93" stroke="#e08214" stroke-width="1"/>
	</g>
	<text x="577" y="85.7" fill="#000000" font-family="Verdana" font-size="12">Vehicule</text>
	<text x="577" y="110.7" fill="#000000" font-family="Verdana" font-size="12">idVehi</text>
	<line x1="577" y1="113" x2="615" y2="113" stroke="#000000" stroke-width="1"/>
	<text x="577" y="127.8" fill="#000000" font-family="Verdana" font-size="12">marque</text>
	<text x="577" y="144.8" fill="#000000" font-family="Verdana" font-size="12">modele</text>
	<text x="577" y="161.8" fill="#000000" font-family="Verdana" font-size="12">couleur</text>
</g>

<!-- Entity Membre -->
<g id="entity-Membre">
	<g id="frame-Membre">
		<rect x="346" y="9" width="98" height="25" fill="#fdb863" stroke="#fdb863" stroke-width="0"/>
		<rect x="346" y="34.0" width="98" height="195" fill="#fee0b6" stroke="#fee0b6" stroke-width="0"/>
		<rect x="346" y="9" width="98" height="220" fill="none" stroke="#e08214" stroke-width="2"/>
		<line x1="346" y1="34" x2="444" y2="34" stroke="#e08214" stroke-width="1"/>
	</g>
	<text x="370" y="26.7" fill="#000000" font-family="Verdana" font-size="12">Membre</text>
	<text x="351" y="51.7" fill="#000000" font-family="Verdana" font-size="12">email</text>
	<line x1="351" y1="54" x2="385" y2="54" stroke="#000000" stroke-width="1"/>
	<text x="351" y="68.7" fill="#000000" font-family="Verdana" font-size="12">password</text>
	<text x="351" y="85.7" fill="#000000" font-family="Verdana" font-size="12">nom</text>
	<text x="351" y="102.7" fill="#000000" font-family="Verdana" font-size="12">prenom</text>
	<text x="351" y="119.8" fill="#000000" font-family="Verdana" font-size="12">dateNaissance</text>
	<text x="351" y="136.8" fill="#000000" font-family="Verdana" font-size="12">numRue</text>
	<text x="351" y="153.8" fill="#000000" font-family="Verdana" font-size="12">nomRue</text>
	<text x="351" y="170.8" fill="#000000" font-family="Verdana" font-size="12">ville</text>
	<text x="351" y="187.8" fill="#000000" font-family="Verdana" font-size="12">codePostal</text>
	<text x="351" y="204.8" fill="#000000" font-family="Verdana" font-size="12">numTel</text>
	<text x="351" y="221.8" fill="#000000" font-family="Verdana" font-size="12">reputation</text>
</g>

<!-- Entity Avis -->
<g id="entity-Avis">
	<g id="frame-Avis">
		<rect x="237" y="354" width="90" height="25" fill="#fdb863" stroke="#fdb863" stroke-width="0"/>
		<rect x="237" y="379.0" width="90" height="59" fill="#fee0b6" stroke="#fee0b6" stroke-width="0"/>
		<rect x="237" y="354" width="90" height="84" fill="none" stroke="#e08214" stroke-width="2"/>
		<line x1="237" y1="379" x2="327" y2="379" stroke="#e08214" stroke-width="1"/>
	</g>
	<text x="269" y="371.7" fill="#000000" font-family="Verdana" font-size="12">Avis</text>
	<text x="242" y="396.8" fill="#000000" font-family="Verdana" font-size="12">idAvis</text>
	<line x1="242" y1="399" x2="279" y2="399" stroke="#000000" stroke-width="1"/>
	<text x="242" y="413.8" fill="#000000" font-family="Verdana" font-size="12">nbEtoiles</text>
	<text x="242" y="430.8" fill="#000000" font-family="Verdana" font-size="12">commentaire</text>
</g>

<!-- Entity Trajet -->
<g id="entity-Trajet">
	<g id="frame-Trajet">
		<rect x="552" y="429" width="102" height="25" fill="#fdb863" stroke="#fdb863" stroke-width="0"/>
		<rect x="552" y="454.0" width="102" height="179" fill="#fee0b6" stroke="#fee0b6" stroke-width="0"/>
		<rect x="552" y="429" width="102" height="204" fill="none" stroke="#e08214" stroke-width="2"/>
		<line x1="552" y1="454" x2="654" y2="454" stroke="#e08214" stroke-width="1"/>
	</g>
	<text x="584" y="446.7" fill="#000000" font-family="Verdana" font-size="12">Trajet</text>
	<text x="557" y="471.7" fill="#000000" font-family="Verdana" font-size="12">idTraj</text>
	<line x1="557" y1="474" x2="593" y2="474" stroke="#000000" stroke-width="1"/>
	<text x="557" y="488.7" fill="#000000" font-family="Verdana" font-size="12">villeDepart</text>
	<text x="557" y="505.7" fill="#000000" font-family="Verdana" font-size="12">villeArrivee</text>
	<text x="557" y="522.7" fill="#000000" font-family="Verdana" font-size="12">adresseRDV</text>
	<text x="557" y="539.8" fill="#000000" font-family="Verdana" font-size="12">adresseDepose</text>
	<text x="557" y="556.8" fill="#000000" font-family="Verdana" font-size="12">date</text>
	<text x="557" y="573.8" fill="#000000" font-family="Verdana" font-size="12">typeVoiture</text>
	<text x="557" y="590.8" fill="#000000" font-family="Verdana" font-size="12">nombrePlaces</text>
	<text x="557" y="607.8" fill="#000000" font-family="Verdana" font-size="12">prix</text>
	<text x="557" y="624.8" fill="#000000" font-family="Verdana" font-size="12">tailleBagage</text>
</g>
</svg>