<?xml version="1.0" standalone="no"?>
<!DOCTYPE svg PUBLIC "-//W3C//DTD SVG 1.1//EN"
"http://www.w3.org/Graphics/SVG/1.1/DTD/svg11.dtd">

<svg width="703" height="736" view_box="0 0 703 736"
xmlns="http://www.w3.org/2000/svg"
xmlns:link="http://www.w3.org/1999/xlink">\n\n<desc>Généré par Mocodo 2.3.7 le Thu, 21 Dec 2017 13:08:02</desc>

<rect id="frame" x="0" y="0" width="703" height="736" fill="#f7f7f7" stroke="none" stroke-width="0"/>

<!-- Association Inscription -->
<line x1="363" y1="94" x2="654" y2="330" stroke="#8073ac" stroke-width="2"/>
<text x="417" y="131.77183593" fill="#b35806" font-family="Verdana" font-size="12">0,N</text>
<line x1="571" y1="625" x2="654" y2="330" stroke="#8073ac" stroke-width="2"/>
<text x="574.87769841" y="515" fill="#b35806" font-family="Verdana" font-size="12">0,N</text>
<g id="association-Inscription">
	<path d="M 680 305 a 14 14 90 0 1 14 14 V 330 h -80 V 319 a 14 14 90 0 1 14 -14" fill="#b2abd2" stroke="#b2abd2" stroke-width="0"/>
	<path d="M 694 330.0 v 11 a 14 14 90 0 1 -14 14 H 628 a 14 14 90 0 1 -14 -14 V 330.0 H 80" fill="#d8daeb" stroke="#d8daeb" stroke-width="0"/>
	<rect x="614" y="305" width="80" height="50" fill="none" rx="14" stroke="#8073ac" stroke-width="2"/>
	<line x1="614" y1="330" x2="694" y2="330" stroke="#8073ac" stroke-width="1"/>
	<text x="621" y="322.7" fill="#000000" font-family="Verdana" font-size="12">Inscription</text>
</g>

<!-- Association Habite -->
<line x1="363" y1="94" x2="476" y2="229" stroke="#8073ac" stroke-width="2"/>
<text x="417" y="150.727204705" fill="#b35806" font-family="Verdana" font-size="12">1,1</text>
<line x1="363" y1="330" x2="476" y2="229" stroke="#8073ac" stroke-width="2"/>
<text x="399" y="312.780898165" fill="#b35806" font-family="Verdana" font-size="12">1,1</text>
<g id="association-Habite">
	<path d="M 489 204 a 14 14 90 0 1 14 14 V 229 h -54 V 218 a 14 14 90 0 1 14 -14" fill="#b2abd2" stroke="#b2abd2" stroke-width="0"/>
	<path d="M 503 229.0 v 11 a 14 14 90 0 1 -14 14 H 463 a 14 14 90 0 1 -14 -14 V 229.0 H 54" fill="#d8daeb" stroke="#d8daeb" stroke-width="0"/>
	<rect x="449" y="204" width="54" height="50" fill="none" rx="14" stroke="#8073ac" stroke-width="2"/>
	<line x1="449" y1="229" x2="503" y2="229" stroke="#8073ac" stroke-width="1"/>
	<text x="456" y="221.7" fill="#000000" font-family="Verdana" font-size="12">Habite</text>
</g>

<!-- Association Donne -->
<line x1="363" y1="94" x2="197" y2="229" stroke="#8073ac" stroke-width="2"/>
<text x="287" y="131.895926061" fill="#b35806" font-family="Verdana" font-size="12">0,N</text>
<line x1="62" y1="431" x2="197" y2="229" stroke="#8073ac" stroke-width="2"/>
<text x="69.1903593934" y="381" fill="#b35806" font-family="Verdana" font-size="12">1,1</text>
<g id="association-Donne">
	<path d="M 210 204 a 14 14 90 0 1 14 14 V 229 h -54 V 218 a 14 14 90 0 1 14 -14" fill="#b2abd2" stroke="#b2abd2" stroke-width="0"/>
	<path d="M 224 229.0 v 11 a 14 14 90 0 1 -14 14 H 184 a 14 14 90 0 1 -14 -14 V 229.0 H 54" fill="#d8daeb" stroke="#d8daeb" stroke-width="0"/>
	<rect x="170" y="204" width="54" height="50" fill="none" rx="14" stroke="#8073ac" stroke-width="2"/>
	<line x1="170" y1="229" x2="224" y2="229" stroke="#8073ac" stroke-width="1"/>
	<text x="177" y="221.7" fill="#000000" font-family="Verdana" font-size="12">Donne</text>
</g>

<!-- Association Ferme_compte -->
<line x1="62" y1="94" x2="197" y2="94" stroke="#8073ac" stroke-width="2"/>
<text x="117" y="111.0" fill="#b35806" font-family="Verdana" font-size="12">0,N</text>
<line x1="363" y1="94" x2="197" y2="94" stroke="#8073ac" stroke-width="2"/>
<text x="287" y="86.0" fill="#b35806" font-family="Verdana" font-size="12">0,N</text>
<g id="association-Ferme_compte">
	<path d="M 236 69 a 14 14 90 0 1 14 14 V 94 h -106 V 83 a 14 14 90 0 1 14 -14" fill="#b2abd2" stroke="#b2abd2" stroke-width="0"/>
	<path d="M 250 94.0 v 11 a 14 14 90 0 1 -14 14 H 158 a 14 14 90 0 1 -14 -14 V 94.0 H 106" fill="#d8daeb" stroke="#d8daeb" stroke-width="0"/>
	<rect x="144" y="69" width="106" height="50" fill="none" rx="14" stroke="#8073ac" stroke-width="2"/>
	<line x1="144" y1="94" x2="250" y2="94" stroke="#8073ac" stroke-width="1"/>
	<text x="151" y="86.7" fill="#000000" font-family="Verdana" font-size="12">Ferme_compte</text>
</g>

<!-- Association Propose -->
<line x1="363" y1="94" x2="476" y2="330" stroke="#8073ac" stroke-width="2"/>
<text x="380.446224278" y="196" fill="#b35806" font-family="Verdana" font-size="12">0,N</text>
<line x1="571" y1="625" x2="476" y2="330" stroke="#8073ac" stroke-width="2"/>
<text x="540.644665088" y="515" fill="#b35806" font-family="Verdana" font-size="12">1,1</text>
<g id="association-Propose">
	<path d="M 494 305 a 14 14 90 0 1 14 14 V 330 h -64 V 319 a 14 14 90 0 1 14 -14" fill="#b2abd2" stroke="#b2abd2" stroke-width="0"/>
	<path d="M 508 330.0 v 11 a 14 14 90 0 1 -14 14 H 458 a 14 14 90 0 1 -14 -14 V 330.0 H 64" fill="#d8daeb" stroke="#d8daeb" stroke-width="0"/>
	<rect x="444" y="305" width="64" height="50" fill="none" rx="14" stroke="#8073ac" stroke-width="2"/>
	<line x1="444" y1="330" x2="508" y2="330" stroke="#8073ac" stroke-width="1"/>
	<text x="451" y="322.7" fill="#000000" font-family="Verdana" font-size="12">Propose</text>
</g>

<!-- Association Passe_Par -->
<line x1="363" y1="330" x2="363" y2="431" stroke="#8073ac" stroke-width="2"/>
<text x="368.0" y="398" fill="#b35806" font-family="Verdana" font-size="12">0,N</text>
<line x1="571" y1="625" x2="363" y2="431" stroke="#8073ac" stroke-width="2"/>
<text x="493" y="587.709736677" fill="#b35806" font-family="Verdana" font-size="12">0,N</text>
<g id="association-Passe_Par">
	<path d="M 387 406 a 14 14 90 0 1 14 14 V 431 h -76 V 420 a 14 14 90 0 1 14 -14" fill="#b2abd2" stroke="#b2abd2" stroke-width="0"/>
	<path d="M 401 431.0 v 11 a 14 14 90 0 1 -14 14 H 339 a 14 14 90 0 1 -14 -14 V 431.0 H 76" fill="#d8daeb" stroke="#d8daeb" stroke-width="0"/>
	<rect x="325" y="406" width="76" height="50" fill="none" rx="14" stroke="#8073ac" stroke-width="2"/>
	<line x1="325" y1="431" x2="401" y2="431" stroke="#8073ac" stroke-width="1"/>
	<text x="332" y="423.7" fill="#000000" font-family="Verdana" font-size="12">Passe_Par</text>
</g>

<!-- Association Correspond -->
<line x1="571" y1="625" x2="363" y2="625" stroke="#8073ac" stroke-width="2"/>
<text x="494" y="642.0" fill="#b35806" font-family="Verdana" font-size="12">0,1</text>
<line x1="197" y1="625" x2="363" y2="625" stroke="#8073ac" stroke-width="2"/>
<text x="246" y="642.0" fill="#b35806" font-family="Verdana" font-size="12">0,N</text>
<g id="association-Correspond">
	<path d="M 391 600 a 14 14 90 0 1 14 14 V 625 h -84 V 614 a 14 14 90 0 1 14 -14" fill="#b2abd2" stroke="#b2abd2" stroke-width="0"/>
	<path d="M 405 625.0 v 11 a 14 14 90 0 1 -14 14 H 335 a 14 14 90 0 1 -14 -14 V 625.0 H 84" fill="#d8daeb" stroke="#d8daeb" stroke-width="0"/>
	<rect x="321" y="600" width="84" height="50" fill="none" rx="14" stroke="#8073ac" stroke-width="2"/>
	<line x1="321" y1="625" x2="405" y2="625" stroke="#8073ac" stroke-width="1"/>
	<text x="328" y="617.7" fill="#000000" font-family="Verdana" font-size="12">Correspond</text>
</g>

<!-- Association Possede -->
<line x1="363" y1="94" x2="476" y2="94" stroke="#8073ac" stroke-width="2"/>
<text x="417" y="86.0" fill="#b35806" font-family="Verdana" font-size="12">0,N</text>
<line x1="571" y1="94" x2="476" y2="94" stroke="#8073ac" stroke-width="2"/>
<text x="514" y="111.0" fill="#b35806" font-family="Verdana" font-size="12">1,1</text>
<g id="association-Possede">
	<path d="M 494 69 a 14 14 90 0 1 14 14 V 94 h -64 V 83 a 14 14 90 0 1 14 -14" fill="#b2abd2" stroke="#b2abd2" stroke-width="0"/>
	<path d="M 508 94.0 v 11 a 14 14 90 0 1 -14 14 H 458 a 14 14 90 0 1 -14 -14 V 94.0 H 64" fill="#d8daeb" stroke="#d8daeb" stroke-width="0"/>
	<rect x="444" y="69" width="64" height="50" fill="none" rx="14" stroke="#8073ac" stroke-width="2"/>
	<line x1="444" y1="94" x2="508" y2="94" stroke="#8073ac" stroke-width="1"/>
	<text x="451" y="86.7" fill="#000000" font-family="Verdana" font-size="12">Possede</text>
</g>

<!-- Association Cree_traj_type -->
<line x1="62" y1="94" x2="62" y2="330" stroke="#8073ac" stroke-width="2"/>
<text x="67.0" y="153" fill="#b35806" font-family="Verdana" font-size="12">0,N</text>
<line x1="197" y1="625" x2="62" y2="330" stroke="#8073ac" stroke-width="2"/>
<text x="167.297659609" y="549" fill="#b35806" font-family="Verdana" font-size="12">1,1</text>
<g id="association-Cree_traj_type">
	<path d="M 101 305 a 14 14 90 0 1 14 14 V 330 h -106 V 319 a 14 14 90 0 1 14 -14" fill="#b2abd2" stroke="#b2abd2" stroke-width="0"/>
	<path d="M 115 330.0 v 11 a 14 14 90 0 1 -14 14 H 23 a 14 14 90 0 1 -14 -14 V 330.0 H 106" fill="#d8daeb" stroke="#d8daeb" stroke-width="0"/>
	<rect x="9" y="305" width="106" height="50" fill="none" rx="14" stroke="#8073ac" stroke-width="2"/>
	<line x1="9" y1="330" x2="115" y2="330" stroke="#8073ac" stroke-width="1"/>
	<text x="16" y="322.7" fill="#000000" font-family="Verdana" font-size="12">Cree_traj_type</text>
</g>

<!-- Association Cible -->
<line x1="62" y1="431" x2="282" y2="229" stroke="#8073ac" stroke-width="2"/>
<text x="112" y="400.036966892" fill="#b35806" font-family="Verdana" font-size="12">1,1</text>
<line x1="363" y1="94" x2="282" y2="229" stroke="#8073ac" stroke-width="2"/>
<text x="287" y="172.312333676" fill="#b35806" font-family="Verdana" font-size="12">0,N</text>
<g id="association-Cible">
	<path d="M 291 204 a 14 14 90 0 1 14 14 V 229 h -46 V 218 a 14 14 90 0 1 14 -14" fill="#b2abd2" stroke="#b2abd2" stroke-width="0"/>
	<path d="M 305 229.0 v 11 a 14 14 90 0 1 -14 14 H 273 a 14 14 90 0 1 -14 -14 V 229.0 H 46" fill="#d8daeb" stroke="#d8daeb" stroke-width="0"/>
	<rect x="259" y="204" width="46" height="50" fill="none" rx="14" stroke="#8073ac" stroke-width="2"/>
	<line x1="259" y1="229" x2="305" y2="229" stroke="#8073ac" stroke-width="1"/>
	<text x="266" y="221.7" fill="#000000" font-family="Verdana" font-size="12">Cible</text>
</g>

<!-- Association Concerne -->
<line x1="62" y1="431" x2="197" y2="431" stroke="#8073ac" stroke-width="2"/>
<text x="112" y="448.0" fill="#b35806" font-family="Verdana" font-size="12">1,1</text>
<line x1="571" y1="625" x2="197" y2="431" stroke="#8073ac" stroke-width="2"/>
<text x="493" y="611.495376349" fill="#b35806" font-family="Verdana" font-size="12">0,N</text>
<g id="association-Concerne">
	<path d="M 219 406 a 14 14 90 0 1 14 14 V 431 h -72 V 420 a 14 14 90 0 1 14 -14" fill="#b2abd2" stroke="#b2abd2" stroke-width="0"/>
	<path d="M 233 431.0 v 11 a 14 14 90 0 1 -14 14 H 175 a 14 14 90 0 1 -14 -14 V 431.0 H 72" fill="#d8daeb" stroke="#d8daeb" stroke-width="0"/>
	<rect x="161" y="406" width="72" height="50" fill="none" rx="14" stroke="#8073ac" stroke-width="2"/>
	<line x1="161" y1="431" x2="233" y2="431" stroke="#8073ac" stroke-width="1"/>
	<text x="168" y="423.7" fill="#000000" font-family="Verdana" font-size="12">Concerne</text>
</g>

<!-- Entity Administrateur -->
<g id="entity-Administrateur">
	<g id="frame-Administrateur">
		<rect x="12" y="52" width="100" height="25" fill="#fdb863" stroke="#fdb863" stroke-width="0"/>
		<rect x="12" y="77.0" width="100" height="59" fill="#fee0b6" stroke="#fee0b6" stroke-width="0"/>
		<rect x="12" y="52" width="100" height="84" fill="none" stroke="#e08214" stroke-width="2"/>
		<line x1="12" y1="77" x2="112" y2="77" stroke="#e08214" stroke-width="1"/>
	</g>
	<text x="17" y="69.7" fill="#000000" font-family="Verdana" font-size="12">Administrateur</text>
	<text x="17" y="94.8" fill="#000000" font-family="Verdana" font-size="12">idAdmin</text>
	<line x1="17" y1="97" x2="67" y2="97" stroke="#000000" stroke-width="1"/>
	<text x="17" y="111.8" fill="#000000" font-family="Verdana" font-size="12">username</text>
	<text x="17" y="128.8" fill="#000000" font-family="Verdana" font-size="12">password</text>
</g>

<!-- Entity Trajet_type -->
<g id="entity-Trajet_type">
	<g id="frame-Trajet_type">
		<rect x="153" y="557" width="88" height="25" fill="#fdb863" stroke="#fdb863" stroke-width="0"/>
		<rect x="153" y="582.0" width="88" height="111" fill="#fee0b6" stroke="#fee0b6" stroke-width="0"/>
		<rect x="153" y="557" width="88" height="136" fill="none" stroke="#e08214" stroke-width="2"/>
		<line x1="153" y1="582" x2="241" y2="582" stroke="#e08214" stroke-width="1"/>
	</g>
	<text x="161" y="574.7" fill="#000000" font-family="Verdana" font-size="12">Trajet_type</text>
	<text x="158" y="599.7" fill="#000000" font-family="Verdana" font-size="12">idTrajType</text>
	<line x1="158" y1="602" x2="223" y2="602" stroke="#000000" stroke-width="1"/>
	<text x="158" y="616.7" fill="#000000" font-family="Verdana" font-size="12">villeDepart</text>
	<text x="158" y="633.8" fill="#000000" font-family="Verdana" font-size="12">villeArrivee</text>
	<text x="158" y="650.8" fill="#000000" font-family="Verdana" font-size="12">distance</text>
	<text x="158" y="667.8" fill="#000000" font-family="Verdana" font-size="12">tempsMoyen</text>
	<text x="158" y="684.8" fill="#000000" font-family="Verdana" font-size="12">plafondPrix</text>
</g>

<!-- Entity Adresse -->
<g id="entity-Adresse">
	<g id="frame-Adresse">
		<rect x="332" y="279" width="62" height="25" fill="#fdb863" stroke="#fdb863" stroke-width="0"/>
		<rect x="332" y="304.0" width="62" height="77" fill="#fee0b6" stroke="#fee0b6" stroke-width="0"/>
		<rect x="332" y="279" width="62" height="102" fill="none" stroke="#e08214" stroke-width="2"/>
		<line x1="332" y1="304" x2="394" y2="304" stroke="#e08214" stroke-width="1"/>
	</g>
	<text x="338" y="296.7" fill="#000000" font-family="Verdana" font-size="12">Adresse</text>
	<text x="337" y="321.7" fill="#000000" font-family="Verdana" font-size="12">idAdr</text>
	<line x1="337" y1="324" x2="370" y2="324" stroke="#000000" stroke-width="1"/>
	<text x="337" y="338.8" fill="#000000" font-family="Verdana" font-size="12">numRue</text>
	<text x="337" y="355.8" fill="#000000" font-family="Verdana" font-size="12">nomRue</text>
	<text x="337" y="372.8" fill="#000000" font-family="Verdana" font-size="12">ville</text>
</g>

<!-- Entity Vehicule -->
<g id="entity-Vehicule">
	<g id="frame-Vehicule">
		<rect x="540" y="43" width="62" height="25" fill="#fdb863" stroke="#fdb863" stroke-width="0"/>
		<rect x="540" y="68.0" width="62" height="77" fill="#fee0b6" stroke="#fee0b6" stroke-width="0"/>
		<rect x="540" y="43" width="62" height="102" fill="none" stroke="#e08214" stroke-width="2"/>
		<line x1="540" y1="68" x2="602" y2="68" stroke="#e08214" stroke-width="1"/>
	</g>
	<text x="545" y="60.7" fill="#000000" font-family="Verdana" font-size="12">Vehicule</text>
	<text x="545" y="85.7" fill="#000000" font-family="Verdana" font-size="12">idVehi</text>
	<line x1="545" y1="88" x2="583" y2="88" stroke="#000000" stroke-width="1"/>
	<text x="545" y="102.8" fill="#000000" font-family="Verdana" font-size="12">marque</text>
	<text x="545" y="119.8" fill="#000000" font-family="Verdana" font-size="12">modele</text>
	<text x="545" y="136.8" fill="#000000" font-family="Verdana" font-size="12">couleur</text>
</g>

<!-- Entity Membre -->
<g id="entity-Membre">
	<g id="frame-Membre">
		<rect x="314" y="9" width="98" height="25" fill="#fdb863" stroke="#fdb863" stroke-width="0"/>
		<rect x="314" y="34.0" width="98" height="145" fill="#fee0b6" stroke="#fee0b6" stroke-width="0"/>
		<rect x="314" y="9" width="98" height="170" fill="none" stroke="#e08214" stroke-width="2"/>
		<line x1="314" y1="34" x2="412" y2="34" stroke="#e08214" stroke-width="1"/>
	</g>
	<text x="338" y="26.7" fill="#000000" font-family="Verdana" font-size="12">Membre</text>
	<text x="319" y="51.7" fill="#000000" font-family="Verdana" font-size="12">idMembre</text>
	<line x1="319" y1="54" x2="380" y2="54" stroke="#000000" stroke-width="1"/>
	<text x="319" y="68.7" fill="#000000" font-family="Verdana" font-size="12">email</text>
	<text x="319" y="85.7" fill="#000000" font-family="Verdana" font-size="12">password</text>
	<text x="319" y="102.8" fill="#000000" font-family="Verdana" font-size="12">nom</text>
	<text x="319" y="119.8" fill="#000000" font-family="Verdana" font-size="12">prenom</text>
	<text x="319" y="136.8" fill="#000000" font-family="Verdana" font-size="12">dateNaissance</text>
	<text x="319" y="153.8" fill="#000000" font-family="Verdana" font-size="12">numTel</text>
	<text x="319" y="170.8" fill="#000000" font-family="Verdana" font-size="12">reputation</text>
</g>

<!-- Entity Avis -->
<g id="entity-Avis">
	<g id="frame-Avis">
		<rect x="17" y="389" width="90" height="25" fill="#fdb863" stroke="#fdb863" stroke-width="0"/>
		<rect x="17" y="414.0" width="90" height="59" fill="#fee0b6" stroke="#fee0b6" stroke-width="0"/>
		<rect x="17" y="389" width="90" height="84" fill="none" stroke="#e08214" stroke-width="2"/>
		<line x1="17" y1="414" x2="107" y2="414" stroke="#e08214" stroke-width="1"/>
	</g>
	<text x="49" y="406.7" fill="#000000" font-family="Verdana" font-size="12">Avis</text>
	<text x="22" y="431.8" fill="#000000" font-family="Verdana" font-size="12">idAvis</text>
	<line x1="22" y1="434" x2="59" y2="434" stroke="#000000" stroke-width="1"/>
	<text x="22" y="448.8" fill="#000000" font-family="Verdana" font-size="12">nbEtoiles</text>
	<text x="22" y="465.8" fill="#000000" font-family="Verdana" font-size="12">commentaire</text>
</g>

<!-- Entity Trajet -->
<g id="entity-Trajet">
	<g id="frame-Trajet">
		<rect x="520" y="523" width="102" height="25" fill="#fdb863" stroke="#fdb863" stroke-width="0"/>
		<rect x="520" y="548.0" width="102" height="179" fill="#fee0b6" stroke="#fee0b6" stroke-width="0"/>
		<rect x="520" y="523" width="102" height="204" fill="none" stroke="#e08214" stroke-width="2"/>
		<line x1="520" y1="548" x2="622" y2="548" stroke="#e08214" stroke-width="1"/>
	</g>
	<text x="552" y="540.7" fill="#000000" font-family="Verdana" font-size="12">Trajet</text>
	<text x="525" y="565.7" fill="#000000" font-family="Verdana" font-size="12">idTraj</text>
	<line x1="525" y1="568" x2="561" y2="568" stroke="#000000" stroke-width="1"/>
	<text x="525" y="582.7" fill="#000000" font-family="Verdana" font-size="12">villeDepart</text>
	<text x="525" y="599.7" fill="#000000" font-family="Verdana" font-size="12">villeArrivee</text>
	<text x="525" y="616.7" fill="#000000" font-family="Verdana" font-size="12">adresseRDV</text>
	<text x="525" y="633.8" fill="#000000" font-family="Verdana" font-size="12">adresseDepose</text>
	<text x="525" y="650.8" fill="#000000" font-family="Verdana" font-size="12">date</text>
	<text x="525" y="667.8" fill="#000000" font-family="Verdana" font-size="12">typeVoiture</text>
	<text x="525" y="684.8" fill="#000000" font-family="Verdana" font-size="12">nombrePlaces</text>
	<text x="525" y="701.8" fill="#000000" font-family="Verdana" font-size="12">prix</text>
	<text x="525" y="718.8" fill="#000000" font-family="Verdana" font-size="12">tailleBagage</text>
</g>
</svg>